<?xml version="1.0" standalone="yes"?>
<svg width="192" height="192">
<path style="fill:#000000; stroke:none;" d="M0 0L0 192L192 192L192 0L0 0z"/>
<path style="fill:#3b88c3; stroke:none;" d="M11 6L12 9C-2.30396 22.363 2 41.3044 2 60C2 95.6885 -0.533996 132.418 2.09028 168C2.46373 173.064 5.57684 177.137 6 182L10 186C14.8636 186.463 18.8783 189.549 24 189.91C62.914 192.655 102.979 190 142 190C152.195 190 182.32 194.63 183 179C194.801 175.96 190 147.519 190 138L190 61C190 48.2861 191.434 34.5998 189.71 22C188.913 16.1744 183.856 14.1257 183 9C178.279 8.0242 176.17 3.47113 171 2.46837C152.594 -1.10135 130.753 2 112 2C78.6232 2 43.1995 -1.33725 11 6z"/>
<path style="fill:#000000; stroke:none;" d="M24 3L24 4L120 4C139.266 4 159.303 2.04086 178 7C168.015 -0.949615 147.085 3 135 3L24 3z"/>
<path style="fill:#55aaaa; stroke:none;" d="M13 4L14 5L13 4z"/>
<path style="fill:#000000; stroke:none;" d="M12 9L23 5C18.5814 3.29337 14.8889 5.64171 12 9z"/>
<path style="fill:#55aaaa; stroke:none;" d="M178 4L179 5L178 4z"/>
<path style="fill:#4992b6; stroke:none;" d="M12 5L13 6L12 5z"/>
<path style="fill:#000000; stroke:none;" d="M13 5L14 6L13 5M178 5C178.833 8.15417 179.729 9.1306 183 9C182.915 12.2079 183.912 13.1255 187 14L187 13L183 10L185 11L181 7L182 9L181 9L178 5z"/>
<path style="fill:#4080bf; stroke:none;" d="M179 5L180 6L179 5z"/>
<path style="fill:#00ffff; stroke:none;" d="M10 6L11 7L10 6z"/>
<path style="fill:#000000; stroke:none;" d="M12 6L13 7L12 6z"/>
<path style="fill:#3a89c3; stroke:none;" d="M179 7L179 8L182 9L182 6L179 7z"/>
<path style="fill:#55aaff; stroke:none;" d="M9 7L10 8L9 7z"/>
<path style="fill:#000000; stroke:none;" d="M10 7L11 8L10 7z"/>
<path style="fill:#4080bf; stroke:none;" d="M182 7L183 8L182 7z"/>
<path style="fill:#388ec7; stroke:none;" d="M8 8L9 9L8 8z"/>
<path style="fill:#000000; stroke:none;" d="M7 11L9 10L9 11L5 13L5 14L12 9L7 11z"/>
<path style="fill:#4095bf; stroke:none;" d="M183 8L184 9L183 8z"/>
<path style="fill:#55aaff; stroke:none;" d="M7 9L8 10L7 9z"/>
<path style="fill:#3a88c4; stroke:none;" d="M9 9L10 10L9 9z"/>
<path style="fill:#336699; stroke:none;" d="M184 9L185 10L184 9z"/>
<path style="fill:#00ffff; stroke:none;" d="M6 10L7 11L6 10z"/>
<path style="fill:#3b88c4; stroke:none;" d="M6 12L9 10L6 12M183 10L184 13L185 13L186 10L183 10z"/>
<path style="fill:#4992b6; stroke:none;" d="M5 12L6 13L5 12z"/>
<path style="fill:#4080bf; stroke:none;" d="M186 12L187 13L186 12z"/>
<path style="fill:#55aaaa; stroke:none;" d="M4 13L5 14L4 13z"/>
<path style="fill:#55aaff; stroke:none;" d="M187 13L188 14L187 13z"/>
<path style="fill:#000000; stroke:none;" d="M6 14L4 23L5 23L6 14M185 14C189.959 32.6975 188 52.7344 188 72L188 169L189 169L189 57C189 44.9152 192.95 23.9851 185 14z"/>
<path style="fill:#0000ff; stroke:none;" d="M189 19L190 20L189 19z"/>
<path style="fill:#000000; stroke:none;" d="M3 24L3 137C3 150.707 -0.83241 170.875 9.46759 181.699C20.0534 192.824 40.1022 189 54 189L169 189L169 188L50 188C35.1283 188 15.6328 191.386 6.96914 175.996C1.13981 165.641 4 149.463 4 138L4 59C4 48.8905 6.90766 33.3124 3 24z"/>
<path style="fill:#d5e4f1; stroke:none;" d="M53 39L53 40L63 40L53 39z"/>
<path style="fill:#ffffff; stroke:none;" d="M129.001 39.7423C119.034 43.5755 122 57.5581 122 66C122 86.2015 128.767 122.137 103 129.696C89.001 133.802 76.3526 125.194 71.6991 112C66.2043 96.4204 70 74.4261 70 58C70 47.5234 63.7396 31.9156 50.1088 41.6034C41.4009 47.7923 46 74.3194 46 84C46 96.832 43.9484 111.811 48.7608 124C59.4365 151.041 93.9658 159.65 119 148.485C151.305 134.078 146 100.104 146 71C146 59.9612 149.072 32.0231 129.001 39.7423z"/>
<path style="fill:#d0e0ef; stroke:none;" d="M70 47L70 109L71 109L71 67L70 47z"/>
<path style="fill:#0d81c1; stroke:none;" d="M44 48L44 113L45 113L45 69L44 48z"/>
<path style="fill:#a7c6e1; stroke:none;" d="M45 48L45 113L46 113L46 69L45 48z"/>
<path style="fill:#0080c1; stroke:none;" d="M120 48L120 108L121 108L121 67L120 48z"/>
<path style="fill:#c8d9eb; stroke:none;" d="M121 48L121 109L122 109L122 68L121 48z"/>
<path style="fill:#9fbfdd; stroke:none;" d="M146 48L146 113L147 113L147 69L146 48z"/>
<path style="fill:#0080c0; stroke:none;" d="M147 48L147 112L148 112L148 68L147 48z"/>
<path style="fill:#8cb0d5; stroke:none;" d="M120 110L120 113L121 113L120 110z"/>
<path style="fill:#cbdcec; stroke:none;" d="M46 114L46 118L47 118L46 114z"/>
<path style="fill:#79a6d1; stroke:none;" d="M143.333 122.667L143.667 123.333L143.333 122.667z"/>
<path style="fill:#93b6d9; stroke:none;" d="M86 129L86 130L89 130L86 129z"/>
<path style="fill:#a1c1de; stroke:none;" d="M103.667 129.333L104.333 129.667L103.667 129.333z"/>
<path style="fill:#b2c9e2; stroke:none;" d="M109 151L109 152L112 152L109 151z"/>
<path style="fill:#8aafd4; stroke:none;" d="M83 152L83 153L86 153L83 152z"/>
<path style="fill:#88add4; stroke:none;" d="M104 152L104 153L109 153L104 152z"/>
<path style="fill:#b4cee6; stroke:none;" d="M89 153L89 154L102 154L89 153z"/>
<path style="fill:#000000; stroke:none;" d="M187 170L185 178L186 178L187 170z"/>
<path style="fill:#0000ff; stroke:none;" d="M189 172L190 173L189 172z"/>
<path style="fill:#55aaaa; stroke:none;" d="M4 178L5 179L4 178z"/>
<path style="fill:#000000; stroke:none;" d="M5 178L7 180L5 178M183 179L178 186L178 187C181.708 185.049 183.816 183.299 184 179L187 179L183 179z"/>
<path style="fill:#55aaff; stroke:none;" d="M187 178L188 179L187 178z"/>
<path style="fill:#4080bf; stroke:none;" d="M5 179L6 180L5 179z"/>
<path style="fill:#0080ff; stroke:none;" d="M184 179L187 181L184 179z"/>
<path style="fill:#4080bf; stroke:none;" d="M186 179L187 180L186 179z"/>
<path style="fill:#000000; stroke:none;" d="M7 181L11 185L7 181M182 181L170 187L170 188C174.435 187.543 180.691 185.726 182 181z"/>
<path style="fill:#4080bf; stroke:none;" d="M7 182L8 183L7 182z"/>
<path style="fill:#3399cc; stroke:none;" d="M184 182L185 183L184 182z"/>
<path style="fill:#4080bf; stroke:none;" d="M8 183L9 184L8 183M183 183L184 184L183 183M9 184L10 185L9 184z"/>
<path style="fill:#3399cc; stroke:none;" d="M182 184L183 185L182 184z"/>
<path style="fill:#000000; stroke:none;" d="M12 185L14 187L12 185z"/>
<path style="fill:#0080ff; stroke:none;" d="M181 185L182 186L181 185z"/>
<path style="fill:#4080bf; stroke:none;" d="M12 186L13 187L12 186z"/>
<path style="fill:#4992db; stroke:none;" d="M179 186L180 187L179 186z"/>
<path style="fill:#0000ff; stroke:none;" d="M180 186L181 187L180 186z"/>
<path style="fill:#55aaff; stroke:none;" d="M13 187L14 188L13 187M178 187L179 188L178 187z"/>
<path style="fill:#0000ff; stroke:none;" d="M19 189L20 190L19 189M172 189L173 190L172 189z"/>
</svg>
